<?xml version="1.0" encoding="utf-8"?>
<!-- Generator: Adobe Illustrator 22.0.0, SVG Export Plug-In . SVG Version: 6.00 Build 0)  -->
<svg version="1.1" id="Layer_1" xmlns="http://www.w3.org/2000/svg" xmlns:xlink="http://www.w3.org/1999/xlink" x="0px" y="0px"
	 viewBox="0 0 419.64 797.24" style="enable-background:new 0 0 419.64 797.24;" xml:space="preserve">
<radialGradient id="SVGID_1_" cx="209.8191" cy="440.8444" r="292.1349" gradientTransform="matrix(1 0 0 1.101 0 -85.9471)" gradientUnits="userSpaceOnUse">
	<stop  offset="0.5744" style="stop-color:#161412"/>
	<stop  offset="0.7977" style="stop-color:#161412"/>
	<stop  offset="1" style="stop-color:#161412"/>
</radialGradient>
<path style="fill:url(#SVGID_1_);" d="M403.24,766.7L403.24,766.7c-27.6-0.4-54.54-3.84-80.09-10.23c-0.91-0.23-1.81-0.46-2.72-0.69
	c2.36-8.2,3.03-23.44-13.78-41.6c-13.11-13.47-29.53-29.29-42.73-41.99l-0.16-0.15c-8.96-8.62-14.61-14.07-17.8-17.29l-3.6-3.64
	l-1.32,5.17c-3.85,15.05-7.48,43.94,11.38,68.23c2.44,3.24,5.22,6.25,8.2,9.03c-0.18-0.09-0.36-0.18-0.54-0.27
	c-12.51-6.25-24.5-13.32-35.63-21.01c-0.77-0.53-1.53-1.08-2.29-1.63c4.74-6.93,10.35-21.12,1.38-43.91
	c-8.5-20.32-21.28-45.72-29.73-62.53l-0.35-0.69c-2.61-5.19-4.5-8.93-5.81-11.69l-2.37-4.96l-2.79,4.68
	c-6.28,10.52-19.81,38.19-9.88,68.22l0.04,0.13c1.38,4.31,3.19,8.48,5.28,12.45c-0.11-0.12-0.22-0.23-0.33-0.35
	c-9.5-10.03-18.43-20.83-26.55-32.08c-0.58-0.81-1.17-1.63-1.74-2.46c6.39-5.07,15.82-16.83,14.16-41.48
	c-2.06-24.04-7.9-55.28-11.39-73.94l-0.05-0.27c-0.67-3.58-1.19-6.39-1.58-8.61l-0.96-5.51l-3.91,3.6
	c-8.67,7.97-28.69,30-27.44,62.18l0.01,0.18c0.14,4.31,0.65,8.61,1.42,12.82c-0.06-0.13-0.13-0.27-0.19-0.4
	c-5.89-12.44-11.2-25.43-15.77-38.6c-0.35-1-0.69-2-1.02-3.01c7.26-2.92,19.1-11.28,23.84-35c4.46-24.48,6.57-58.21,7.7-76.33
	c0.18-2.98,0.34-5.39,0.48-7.34l0.4-5.51l-4.6,2.22c-10.25,4.95-34.81,19.82-41.5,50.86l-0.01,0.07c-0.86,3.85-1.42,7.8-1.74,11.75
	c-0.04-0.21-0.08-0.43-0.12-0.64c-2.59-13.86-4.54-27.61-5.78-40.88c-0.1-1.03-0.18-2.06-0.25-3.09
	c7.74-0.45,21.13-4.66,31.42-25.97c10.1-21.99,20.08-53.7,25.45-70.74l0.04-0.12c0.91-2.88,1.63-5.2,2.24-7.05l1.64-5.04l-4.83,0.64
	c-11.05,1.47-38.25,7.87-52.03,35.58l-0.03,0.07c-1.99,3.93-3.63,8.11-5,12.39c0.01-0.15,0.02-0.29,0.02-0.44
	c0.74-14.63,2.21-29.18,4.35-43.24c0.15-0.98,0.31-1.96,0.48-2.93c3.04,0.87,7.23,1.49,12.17,0.68c8.56-1.41,16.79-6.6,24.51-15.48
	c14.52-17.49,31-43.23,40.84-58.61c1.99-3.11,3.53-5.51,4.75-7.36l2.81-4.26l-4.7-0.94c-11.01-2.19-38.8-4.89-58.92,17.43
	l-0.04,0.05c-2.85,3.12-5.42,6.55-7.75,10.15c0.03-0.1,0.06-0.19,0.09-0.29c4.29-13.67,9.32-27.1,14.93-39.91
	c0.39-0.9,0.79-1.8,1.19-2.7c6.77,4.47,20.04,9.19,38.85-2.56c17.27-11.45,39.57-30.04,52.9-41.14l0.14-0.11
	c3.84-3.21,6.62-5.52,8.69-7.18l3.99-3.2l-4.41-2.43c-10.21-5.62-36.69-17.08-62.01-2.31l-0.09,0.05c-3.12,1.79-6.19,3.92-9.21,6.39
	c0.08-0.12,0.16-0.24,0.24-0.37c7.68-11.52,16.09-22.58,25-32.89c0.64-0.75,1.29-1.49,1.94-2.22c5.36,6.33,17,15.04,38.48,10.05
	c18.83-4.99,44.71-14.38,61.9-20.61c6.61-2.4,11.39-4.13,14.56-5.2l4.98-1.67l-3.82-3.91c-8.48-8.68-31.45-28.24-61.43-22.5
	l-0.09,0.02c-3.74,0.69-7.42,1.75-11,3.05c0.13-0.1,0.25-0.19,0.38-0.29c4.14-3.15,13.92-9.38,21.07-13.92
	c2.49-1.58,4.69-2.98,6.32-4.04c1.35,0.03,2.78,0.05,4.27,0.05c15.17,0,37.47-2,61.65-10.86l0.07-0.03
	c16.44-6.52,64.02-24.2,85.9-31.25l10.26-3.3l-10.32-3.06c-11.56-3.43-71.23-19.44-110.76,1.41l-0.06,0.03
	c-20.36,10-34.38,22.98-43.04,32.93l-5.86,3.66l-2.84,1.84c-8.86,5.73-22.25,14.4-29.28,20.03c-0.18,0.15-0.36,0.3-0.55,0.45
	c4.29-5.75,8.19-11.4,11.68-16.93c17.17-27.91,22-60.3,23.29-72.93l0.66-6.49l-5.14,3.26c-6.98,4.43-23.14,16.1-39.4,31.73
	c-19.62,18.85-32.03,36.29-36.88,51.83c-9.82,27.63-1.04,41.01,6.56,47.07c-0.3,0.34-0.6,0.67-0.9,1.01l-0.87,1.03
	c-10.7,12.34-20.76,25.8-29.89,40.01c-0.15,0.23-0.29,0.47-0.44,0.7c2.59-7.82,4.38-14.36,5.6-19.48
	c7.28-31.76,1.61-64.04-1.16-76.44l-1.41-6.32l-3.8,4.99c-11.26,14.8-43.53,65.46-44.22,102.98c-1.4,29.14,10.25,39.19,18.93,42.63
	c-0.16,0.37-0.34,0.73-0.5,1.09l-0.67,1.51c-6.43,14.59-12.06,29.72-16.72,44.97c-0.08,0.25-0.15,0.51-0.22,0.76
	c0.32-7.39,0.29-13.57,0.11-18.44c-1.53-32.7-15.66-61.57-21.66-72.47l-3.13-5.69l-2.22,6.19c-2.85,7.94-8.74,27.19-12.74,49.01
	c-4.85,26.44-5.44,47.72-1.78,63.18c4.57,21.74,14.58,33.96,28.39,34.84c-0.04,0.23-0.08,0.46-0.11,0.69
	c-0.05,0.35-0.12,0.7-0.18,1.05c-0.06,0.36-0.12,0.72-0.18,1.1c-2.46,15.96-4.07,32.2-4.79,48.26c-0.01,0.25-0.02,0.51-0.03,0.76
	c-1.45-7.06-2.94-12.87-4.28-17.42c-9.3-30.58-30.04-53.88-38.53-62.48l-4.44-4.5l-0.57,6.62c-1.79,20.7-2.89,81.25,13.3,112.34
	c9.87,20.09,20.99,25.11,29.64,25.11c2.26,0,4.34-0.35,6.2-0.85c0.03,0.35,0.05,0.7,0.08,1.05c0.02,0.24,0.04,0.47,0.05,0.7
	c0.03,0.36,0.05,0.72,0.09,1.05c1.54,16.74,3.99,33.47,7.29,49.74c0.06,0.28,0.12,0.56,0.18,0.84c-3.39-7.15-6.5-12.82-9.06-17.1
	c-16.19-26.45-41.69-42.19-51.9-47.73l-5.22-2.84l0.94,6.33c1.25,8.43,5.13,28.25,11.8,49.12c8.09,25.34,17.42,43.79,27.68,54.79
	c10.65,11.99,19.96,15.76,27.47,15.76c5.29,0,9.67-1.87,13-4.06c0.11,0.32,0.21,0.65,0.32,0.97l0.53,1.59
	c5.47,15.79,11.71,30.88,18.54,44.85c0.1,0.21,0.21,0.43,0.32,0.64c-4.13-4.64-8.23-8.88-12.29-12.67
	c-22.18-20.24-50.53-27.16-61.69-29.2l-5.59-1.02l2.38,5.67c7.29,17.37,34.7,70.67,63.97,87.16c9.13,5.48,16.67,7.54,22.84,7.54
	c9.12,0,15.24-4.48,19.1-9c0.08,0.11,0.16,0.23,0.24,0.34c0.25,0.35,0.51,0.69,0.77,1.04c0.2,0.26,0.4,0.53,0.58,0.79
	c9.24,12.85,19.51,25.12,30.52,36.48c0.17,0.17,0.34,0.34,0.51,0.52c-5.33-3.06-10.49-5.77-15.48-8.08
	c-27.26-12.2-56.51-9.68-67.82-8.03l-5.64,0.82l3.8,4.66c11.66,14.28,52.63,56.44,86.72,62.6c4.6,0.97,8.88,1.45,12.84,1.45
	c7.1,0,13.16-1.56,18.08-4.66c5.41-3.4,8.51-8.08,10.29-12.12c0.25,0.18,0.5,0.36,0.76,0.54l1.45,1.05
	c13.57,9.41,28.29,17.88,43.75,25.18c0.21,0.1,0.42,0.19,0.64,0.29c-7-1.29-13.59-2.25-19.73-2.86l-0.04,0
	c-31.53-2.66-59.58,9.24-70.18,14.48l-5.44,2.69l5.21,3.21c14.41,8.87,60.07,31.64,96.75,31.64c3.77,0,7.45-0.24,10.99-0.76
	c14.36-1.73,24.83-6.18,31.13-13.23c4.59-5.14,6.17-10.74,6.57-15.23c0.37,0.1,0.73,0.2,1.09,0.29l1.4,0.34
	c26.61,6.72,54.73,10.34,83.66,10.77c3.28,0,5.99-2.94,6.04-6.57C409.24,769.78,406.57,766.75,403.24,766.7z M204.68,186.02
	C204.68,186.02,204.68,186.02,204.68,186.02L204.68,186.02L204.68,186.02z"/>
</svg>
