<?xml version="1.0" encoding="utf-8"?>
<!-- Generator: Adobe Illustrator 22.0.0, SVG Export Plug-In . SVG Version: 6.00 Build 0)  -->
<svg version="1.1" id="Layer_1" xmlns="http://www.w3.org/2000/svg" xmlns:xlink="http://www.w3.org/1999/xlink" x="0px" y="0px"
	 viewBox="0 0 419.64 797.24" style="enable-background:new 0 0 419.64 797.24;" xml:space="preserve">
<radialGradient id="SVGID_1_" cx="209.8191" cy="440.8444" r="292.1349" gradientTransform="matrix(-1 0 0 1.101 419.6382 -85.9471)" gradientUnits="userSpaceOnUse">
	<stop  offset="0.5744" style="stop-color:#161412"/>
	<stop  offset="0.7977" style="stop-color:#161412"/>
	<stop  offset="1" style="stop-color:#161412"/>
</radialGradient>
<path style="fill:url(#SVGID_1_);" d="M10.44,773.44c0.05,3.63,2.76,6.57,6.04,6.57c28.93-0.42,57.04-4.05,83.66-10.77l1.4-0.34
	c0.37-0.09,0.73-0.2,1.09-0.29c0.39,4.49,1.98,10.09,6.57,15.23c6.3,7.05,16.77,11.5,31.13,13.23c3.54,0.52,7.22,0.76,10.99,0.76
	c36.68,0,82.35-22.76,96.75-31.64l5.21-3.21l-5.44-2.69c-10.6-5.24-38.65-17.14-70.18-14.48l-0.04,0
	c-6.14,0.61-12.73,1.56-19.73,2.86c0.21-0.1,0.42-0.19,0.64-0.29c15.46-7.3,30.17-15.77,43.75-25.18l1.45-1.05
	c0.25-0.18,0.5-0.36,0.76-0.54c1.78,4.04,4.88,8.72,10.29,12.12c4.93,3.1,10.98,4.66,18.08,4.66c3.96,0,8.24-0.48,12.84-1.45
	c34.1-6.16,75.07-48.32,86.72-62.6l3.8-4.66l-5.64-0.82c-11.31-1.65-40.56-4.16-67.82,8.03c-4.98,2.32-10.15,5.02-15.48,8.08
	c0.17-0.17,0.34-0.34,0.51-0.52c11.01-11.36,21.28-23.63,30.52-36.48c0.19-0.26,0.39-0.52,0.58-0.79c0.26-0.34,0.52-0.69,0.77-1.04
	c0.08-0.11,0.16-0.23,0.24-0.34c3.86,4.52,9.98,9,19.1,9c6.17,0,13.71-2.05,22.84-7.54c29.26-16.48,56.68-69.79,63.97-87.16
	l2.38-5.67l-5.59,1.02c-11.16,2.04-39.51,8.96-61.69,29.2c-4.06,3.8-8.16,8.03-12.29,12.67c0.11-0.21,0.21-0.43,0.32-0.64
	c6.84-13.97,13.08-29.06,18.54-44.85l0.53-1.59c0.11-0.32,0.21-0.65,0.32-0.97c3.32,2.19,7.71,4.06,13,4.06
	c7.5,0,16.82-3.77,27.47-15.76c10.26-10.99,19.59-29.45,27.68-54.79c6.66-20.87,10.55-40.7,11.8-49.12l0.94-6.33l-5.22,2.84
	c-10.21,5.54-35.71,21.29-51.9,47.73c-2.56,4.29-5.66,9.95-9.06,17.1c0.06-0.28,0.12-0.56,0.18-0.84c3.3-16.27,5.76-33,7.29-49.74
	c0.03-0.34,0.06-0.69,0.09-1.05c0.02-0.23,0.03-0.47,0.05-0.7c0.03-0.35,0.06-0.7,0.08-1.05c1.86,0.51,3.94,0.85,6.2,0.85
	c8.65,0,19.77-5.02,29.64-25.11c16.19-31.09,15.09-91.64,13.3-112.34l-0.57-6.62l-4.44,4.5c-8.49,8.6-29.23,31.9-38.53,62.48
	c-1.34,4.54-2.83,10.36-4.28,17.42c-0.01-0.25-0.01-0.51-0.03-0.76c-0.72-16.06-2.33-32.3-4.79-48.26c-0.06-0.38-0.12-0.74-0.18-1.1
	c-0.06-0.35-0.12-0.7-0.18-1.05c-0.04-0.23-0.08-0.46-0.11-0.69c13.81-0.87,23.82-13.09,28.39-34.84
	c3.66-15.45,3.06-36.74-1.78-63.18c-4-21.82-9.89-41.07-12.74-49.01l-2.22-6.19l-3.13,5.69c-6,10.9-20.14,39.77-21.66,72.47
	c-0.18,4.87-0.21,11.05,0.11,18.44c-0.08-0.25-0.15-0.51-0.22-0.76c-4.66-15.26-10.29-30.39-16.72-44.97l-0.67-1.51
	c-0.16-0.37-0.34-0.73-0.5-1.09c8.68-3.45,20.32-13.49,18.93-42.63c-0.69-37.52-32.96-88.18-44.22-102.98l-3.8-4.99l-1.41,6.32
	c-2.77,12.4-8.44,44.67-1.16,76.44c1.23,5.12,3.02,11.66,5.6,19.48c-0.15-0.23-0.29-0.47-0.44-0.7
	c-9.13-14.21-19.18-27.67-29.89-40.01l-0.87-1.03c-0.3-0.34-0.6-0.67-0.9-1.01c7.6-6.05,16.39-19.43,6.56-47.07
	c-4.85-15.55-17.26-32.98-36.88-51.83c-16.26-15.62-32.42-27.3-39.4-31.73l-5.14-3.26l0.66,6.49c1.28,12.63,6.12,45.02,23.29,72.93
	c3.49,5.53,7.39,11.18,11.68,16.93c-0.18-0.15-0.36-0.3-0.55-0.45c-7.03-5.63-20.42-14.29-29.28-20.03l-2.84-1.84l-5.86-3.66
	c-8.66-9.95-22.68-22.92-43.04-32.93l-0.06-0.03C97.03,17.59,37.36,33.6,25.8,37.03l-10.32,3.06l10.26,3.3
	c21.88,7.05,69.46,24.73,85.9,31.25l0.07,0.03c24.18,8.86,46.48,10.86,61.65,10.86c1.5,0,2.92-0.02,4.27-0.05
	c1.63,1.06,3.83,2.46,6.32,4.04c7.15,4.54,16.94,10.77,21.07,13.92c0.13,0.1,0.25,0.19,0.38,0.29c-3.57-1.31-7.25-2.36-11-3.05
	l-0.09-0.02c-29.98-5.74-52.95,13.82-61.43,22.5l-3.82,3.91l4.98,1.67c3.17,1.06,7.95,2.8,14.56,5.2
	c17.19,6.24,43.08,15.62,61.9,20.61c21.48,5,33.13-3.72,38.48-10.05c0.65,0.74,1.3,1.48,1.94,2.22c8.91,10.31,17.32,21.38,25,32.89
	c0.08,0.12,0.16,0.24,0.24,0.37c-3.02-2.46-6.09-4.59-9.21-6.39l-0.09-0.05c-25.32-14.77-51.8-3.31-62.01,2.31l-4.41,2.43l3.99,3.2
	c2.07,1.66,4.85,3.98,8.69,7.18l0.14,0.11c13.32,11.11,35.62,29.7,52.9,41.14c18.82,11.75,32.08,7.03,38.85,2.56
	c0.4,0.9,0.8,1.8,1.19,2.7c5.62,12.81,10.64,26.24,14.93,39.91c0.03,0.1,0.06,0.19,0.09,0.29c-2.33-3.6-4.9-7.03-7.75-10.15
	l-0.04-0.05c-20.12-22.32-47.91-19.63-58.92-17.43l-4.7,0.94l2.81,4.26c1.22,1.85,2.76,4.25,4.75,7.36
	c9.85,15.38,26.33,41.13,40.84,58.61c7.72,8.88,15.95,14.07,24.51,15.48c4.93,0.81,9.13,0.19,12.17-0.68
	c0.17,0.98,0.33,1.95,0.48,2.93c2.15,14.06,3.61,28.61,4.35,43.24c0.01,0.15,0.01,0.29,0.02,0.44c-1.37-4.28-3.02-8.46-5-12.39
	l-0.03-0.07c-13.77-27.71-40.97-34.11-52.03-35.58l-4.83-0.64l1.64,5.04c0.61,1.85,1.33,4.17,2.24,7.05l0.04,0.12
	c5.36,17.04,15.35,48.75,25.45,70.74c10.29,21.31,23.68,25.52,31.42,25.97c-0.08,1.03-0.16,2.06-0.25,3.09
	c-1.24,13.27-3.18,27.02-5.78,40.88c-0.04,0.22-0.08,0.43-0.12,0.64c-0.33-3.95-0.89-7.9-1.74-11.75l-0.01-0.07
	c-6.69-31.03-31.25-45.91-41.5-50.86l-4.6-2.22l0.4,5.51c0.14,1.95,0.29,4.35,0.48,7.34c1.13,18.12,3.23,51.85,7.7,76.33
	c4.74,23.72,16.58,32.07,23.84,35c-0.34,1.01-0.68,2.01-1.02,3.01c-4.58,13.17-9.88,26.16-15.77,38.6c-0.06,0.13-0.13,0.27-0.19,0.4
	c0.77-4.21,1.28-8.51,1.42-12.82l0.01-0.18c1.24-32.18-18.78-54.2-27.44-62.18l-3.91-3.6l-0.96,5.51c-0.39,2.22-0.91,5.03-1.58,8.61
	l-0.05,0.27c-3.49,18.66-9.33,49.89-11.39,73.94c-1.66,24.65,7.76,36.41,14.16,41.48c-0.58,0.82-1.16,1.64-1.74,2.46
	c-8.12,11.25-17.05,22.05-26.55,32.08c-0.11,0.12-0.22,0.23-0.33,0.35c2.09-3.98,3.9-8.14,5.28-12.45l0.04-0.13
	c9.93-30.03-3.6-57.71-9.88-68.22l-2.79-4.68l-2.37,4.96c-1.32,2.76-3.2,6.5-5.81,11.69l-0.35,0.69
	c-8.45,16.81-21.23,42.21-29.73,62.53c-8.97,22.79-3.36,36.98,1.38,43.91c-0.76,0.55-1.52,1.09-2.29,1.63
	c-11.14,7.69-23.13,14.76-35.63,21.01c-0.18,0.09-0.36,0.18-0.54,0.27c2.98-2.79,5.75-5.8,8.2-9.03
	c18.86-24.29,15.22-53.17,11.38-68.23l-1.32-5.17l-3.6,3.64c-3.19,3.22-8.84,8.67-17.8,17.29l-0.16,0.15
	c-13.2,12.71-29.62,28.52-42.73,41.99c-16.81,18.17-16.14,33.4-13.78,41.6c-0.9,0.23-1.81,0.46-2.72,0.69
	C70.94,762.86,44,766.3,16.4,766.7h0C13.07,766.75,10.4,769.78,10.44,773.44z M214.96,186.02L214.96,186.02
	C214.96,186.02,214.96,186.02,214.96,186.02L214.96,186.02z"/>
</svg>
