<?xml version="1.0" encoding="utf-8"?>
<!-- Generator: Adobe Illustrator 22.0.0, SVG Export Plug-In . SVG Version: 6.00 Build 0)  -->
<svg version="1.1" id="Layer_1" xmlns="http://www.w3.org/2000/svg" xmlns:xlink="http://www.w3.org/1999/xlink" x="0px" y="0px"
	 viewBox="0 0 1000 154" style="enable-background:new 0 0 1000 154;" xml:space="preserve">
<style type="text/css">
	.st0{fill:#CBCBCB;}
</style>
<g>
	<polygon class="st0" points="114.7,0 83.6,42.4 52.5,0 0,0 0,154 52.5,154 52.5,92.4 83.6,134.9 114.7,92.4 114.7,154 167.3,154 
		167.3,0 	"/>
	<polygon class="st0" points="177.8,154 239.2,154 239.2,0 177.8,0 	"/>
	<path class="st0" d="M763.8,94L774.4,55L785.1,94H763.8L763.8,94z M447.8,94l10.7-39l10.8,39H447.8L447.8,94z M316.8,74.5h-14.3
		V42.8c0,0,8.7,0,14.3,0c7.9,0,17.6,1.3,17.6,15.8C334.3,72.2,325.7,74.5,316.8,74.5 M945.3,77L999.9,0h-64.1l-22.6,31.8L890.7,0
		h-64.1L881.3,77l-29.6,41.8l-0.1-0.1L803.6,0h-58.5l-45.4,113l0-113h-52.3l-31.3,42.4L585,0h-52.5v110.7L487.8,0h-58.5l-52.8,131.3
		l-16.6-23.3c29.1-16.9,28-49.7,28-49.7c0,0,1.1-32.9-29.1-49.6c-12.7-7-25.2-8.6-45.7-8.6h-63.4v154h52.7v-36.8l26.1,36.8l102.8,0
		l5.2-19h43.9l5.2,19l99.3,0V92.4l31.1,42.5l31-42.5V154h100.2l5.2-19h43.7l5.2,19h89.1l22.7-31.9L936,154h64L945.3,77L945.3,77z"/>
</g>
</svg>
