<?xml version="1.0" encoding="utf-8"?>
<!-- Generator: Adobe Illustrator 22.0.0, SVG Export Plug-In . SVG Version: 6.00 Build 0)  -->
<svg version="1.1" id="Layer_1" xmlns="http://www.w3.org/2000/svg" xmlns:xlink="http://www.w3.org/1999/xlink" x="0px" y="0px"
	 viewBox="0 0 235.3 47.7" style="enable-background:new 0 0 235.3 47.7;" xml:space="preserve">
<style type="text/css">
	.st0{display:none;}
	.st1{fill:#CBCBCB;}
	.st2{fill:#BCBCBC;}
	.st3{enable-background:new    ;}
	.st4{fill:none;}
	.st5{fill:none;stroke:#CBCBCB;stroke-miterlimit:10;}
</style>
<path class="st0" d="M18.1,25.9c0.6,0.7,1,1.3,1,1.3c0.8,1,4.4,7.1,6,7.2h8.1c1.3,0,1.6-1.8,0.1-2.2c-0.6-0.2-2.7-0.4-5.3-3.7
	c-1.6-1.9-3-3.7-3.6-4.6c3.7,0,5-1.1,5-5.3c0-7.4-2.9-6.1-10.9-6.3c0,0-12.5,0-12.8-0.1c-2.7-0.1-3.5,2.2,0.2,2.4
	c1.9,0.1,2.9,1.2,3.1,4v10c-0.1,2.9-0.2,3.5-3.6,3.8c-1.9,0-2.1,2,0.4,2c0.4,0,12.4,0,12.4,0c2.8,0.1,2.5-1.9,0.7-2
	c-2.4-0.2-3.6,0.2-3.6-2.9c0-0.3-0.1-2.2-0.1-2.7C15.2,24.2,17.2,24.5,18.1,25.9 M22.6,18.6c-0.1,3.7-0.7,3.4-4.1,3.5
	c-0.4,0-2.4,0-3.1,0c0-1.1,0-6,0-6c0-0.8,0.4-1.4,1.3-1.4C22.5,14.5,22.7,15.2,22.6,18.6"/>
<g>
	<path class="st1" d="M46.6,1v45.7H0.9V1H46.6 M47.6,0H-0.1v47.7h47.7L47.6,0L47.6,0z"/>
</g>
<g>
	<path class="st1" d="M234.3,1v45.7H48.5V1H234.3 M235.3,0H47.4v47.7h187.9V0L235.3,0z"/>
</g>
<path class="st2" d="M22.9,26.5c0.8,0.9,1.3,1.7,1.3,1.7c1,1.3,5.6,10.4,7.7,10.5h10.3c1.7,0,2-2.3,0.1-2.8
	c-0.8-0.3-3.4-0.5-6.8-4.7c-2-2.4-3.8-6-4.6-7.2c4.7,0,6.4-1.4,6.4-6.8c0-9.4-3.7-7.8-13.9-8c0,0-16,0-16.3-0.1
	C3.7,9,2.6,11.9,7.4,12.2c2.4,0.1,3.7,1.5,4,5.1v14.1c-0.1,3.7-0.3,4.5-4.6,4.9c-2.4,0-2.7,2.6,0.5,2.6c0.5,0,15.8,0,15.8,0
	c3.6,0.1,3.2-2.4,0.9-2.6c-3.1-0.3-4.6,0.3-4.6-3.7c0-0.4-0.1-4.1-0.1-4.7C19.2,24.4,21.6,24.7,22.9,26.5 M28.5,17.2
	c-0.1,4.7-0.9,4.3-5.2,4.5c-0.5,0-3.1,0-4,0c0-1.4,0-7.7,0-7.7c0-1,0.5-1.8,1.7-1.8C28.4,12,28.6,12.9,28.5,17.2"/>
<g class="st3">
	<path class="st2" d="M61.2,22.2V27c0,0.7-0.2,1.2-0.6,1.6s-1,0.7-1.7,0.7l-0.2,0c-0.8,0-1.4-0.2-1.9-0.6S56,27.8,56,27v-4.8H57V27
		c0,0.5,0.1,0.9,0.4,1.2c0.3,0.3,0.7,0.4,1.2,0.4c0.5,0,0.9-0.1,1.2-0.4s0.4-0.7,0.4-1.2v-4.8H61.2z"/>
	<path class="st2" d="M68.1,29.3h-0.9l-3.6-5.5v5.5h-0.9v-7.1h0.9l3.6,5.5v-5.5h0.9V29.3z"/>
	<path class="st2" d="M69.8,29.3v-7.1h2c0.6,0,1.2,0.1,1.6,0.4s0.8,0.7,1.1,1.2s0.4,1.1,0.4,1.7V26c0,0.7-0.1,1.3-0.4,1.8
		s-0.6,0.9-1.1,1.2s-1,0.4-1.7,0.4H69.8z M70.7,23v5.6h1c0.7,0,1.3-0.2,1.7-0.7c0.4-0.4,0.6-1.1,0.6-1.9v-0.4c0-0.8-0.2-1.4-0.6-1.9
		S72.5,23,71.8,23H70.7z"/>
	<path class="st2" d="M80.4,26h-3.1v2.5h3.6v0.8h-4.5v-7.1h4.5V23h-3.5v2.3h3.1V26z"/>
	<path class="st2" d="M84.6,26.4H83v2.9H82v-7.1h2.4c0.8,0,1.4,0.2,1.8,0.5s0.6,0.9,0.6,1.6c0,0.4-0.1,0.8-0.4,1.2s-0.6,0.6-1,0.7
		l1.7,3v0.1h-1L84.6,26.4z M83,25.7h1.4c0.5,0,0.8-0.1,1.1-0.4s0.4-0.6,0.4-1c0-0.4-0.1-0.8-0.4-1c-0.3-0.2-0.6-0.4-1.1-0.4H83V25.7
		z"/>
	<path class="st2" d="M93.4,29.3h-0.9v-6l-1.8,0.7v-0.8l2.6-1h0.1V29.3z"/>
	<path class="st2" d="M100.6,22.7l-2.9,6.6h-0.9l2.9-6.4h-3.8v-0.7h4.8V22.7z"/>
	<path class="st2" d="M107,26.4h-1.7v2.9h-0.9v-7.1h2.4c0.8,0,1.4,0.2,1.8,0.5s0.6,0.9,0.6,1.6c0,0.4-0.1,0.8-0.4,1.2
		s-0.6,0.6-1,0.7l1.7,3v0.1h-1L107,26.4z M105.3,25.7h1.4c0.5,0,0.8-0.1,1.1-0.4s0.4-0.6,0.4-1c0-0.4-0.1-0.8-0.4-1
		c-0.3-0.2-0.6-0.4-1.1-0.4h-1.4V25.7z"/>
	<path class="st2" d="M114.5,26h-3.1v2.5h3.6v0.8h-4.5v-7.1h4.5V23h-3.5v2.3h3.1V26z"/>
	<path class="st2" d="M121.6,26c0,0.7-0.1,1.3-0.3,1.8c-0.2,0.5-0.5,0.9-0.9,1.2l1.3,1l-0.6,0.6l-1.5-1.2c-0.2,0.1-0.5,0.1-0.7,0.1
		c-0.6,0-1.1-0.1-1.5-0.4c-0.4-0.3-0.8-0.7-1-1.2c-0.2-0.5-0.4-1.1-0.4-1.8v-0.5c0-0.7,0.1-1.3,0.4-1.8c0.2-0.5,0.6-0.9,1-1.2
		c0.4-0.3,0.9-0.4,1.5-0.4c0.6,0,1.1,0.1,1.5,0.4s0.8,0.7,1,1.2c0.2,0.5,0.4,1.1,0.4,1.8V26z M120.7,25.5c0-0.8-0.2-1.5-0.5-1.9
		c-0.3-0.5-0.8-0.7-1.4-0.7c-0.6,0-1.1,0.2-1.4,0.7c-0.3,0.5-0.5,1.1-0.5,1.9V26c0,0.8,0.2,1.5,0.5,1.9c0.3,0.5,0.8,0.7,1.4,0.7
		s1.1-0.2,1.4-0.7c0.3-0.4,0.5-1.1,0.5-1.9V25.5z"/>
	<path class="st2" d="M128.1,22.2V27c0,0.7-0.2,1.2-0.6,1.6c-0.4,0.4-1,0.7-1.7,0.7l-0.2,0c-0.8,0-1.4-0.2-1.9-0.6
		c-0.5-0.4-0.7-1-0.7-1.7v-4.8h0.9V27c0,0.5,0.1,0.9,0.4,1.2c0.3,0.3,0.7,0.4,1.2,0.4c0.5,0,0.9-0.1,1.2-0.4
		c0.3-0.3,0.4-0.7,0.4-1.2v-4.8H128.1z"/>
	<path class="st2" d="M130.6,29.3h-0.9v-7.1h0.9V29.3z"/>
	<path class="st2" d="M134.9,26.4h-1.7v2.9h-0.9v-7.1h2.4c0.8,0,1.4,0.2,1.8,0.5c0.4,0.4,0.6,0.9,0.6,1.6c0,0.4-0.1,0.8-0.4,1.2
		s-0.6,0.6-1,0.7l1.7,3v0.1h-1L134.9,26.4z M133.2,25.7h1.4c0.5,0,0.8-0.1,1.1-0.4c0.3-0.2,0.4-0.6,0.4-1c0-0.4-0.1-0.8-0.4-1
		c-0.3-0.2-0.6-0.4-1.1-0.4h-1.4V25.7z"/>
	<path class="st2" d="M142.5,26h-3.1v2.5h3.6v0.8h-4.5v-7.1h4.5V23h-3.5v2.3h3.1V26z"/>
	<path class="st2" d="M146.2,26.1c-0.8-0.2-1.4-0.5-1.8-0.9c-0.4-0.3-0.5-0.8-0.5-1.2c0-0.6,0.2-1,0.7-1.4c0.4-0.4,1-0.5,1.7-0.5
		c0.5,0,0.9,0.1,1.3,0.3c0.4,0.2,0.7,0.4,0.9,0.8s0.3,0.7,0.3,1.1h-0.9c0-0.4-0.1-0.8-0.4-1c-0.3-0.2-0.7-0.4-1.2-0.4
		c-0.5,0-0.8,0.1-1.1,0.3s-0.4,0.5-0.4,0.8c0,0.3,0.1,0.5,0.4,0.7c0.2,0.2,0.7,0.4,1.3,0.6c0.6,0.2,1.1,0.3,1.4,0.5
		c0.3,0.2,0.6,0.4,0.7,0.7s0.2,0.6,0.2,0.9c0,0.6-0.2,1-0.7,1.4c-0.4,0.3-1,0.5-1.8,0.5c-0.5,0-0.9-0.1-1.4-0.3
		c-0.4-0.2-0.7-0.4-1-0.8s-0.3-0.7-0.3-1.1h0.9c0,0.4,0.2,0.8,0.5,1c0.3,0.2,0.7,0.4,1.3,0.4c0.5,0,0.9-0.1,1.1-0.3s0.4-0.5,0.4-0.8
		s-0.1-0.6-0.4-0.8C147.3,26.5,146.9,26.3,146.2,26.1z"/>
	<path class="st2" d="M156.5,27.4h-3l-0.7,1.9h-1l2.7-7.1h0.8l2.7,7.1h-1L156.5,27.4z M153.8,26.7h2.4l-1.2-3.3L153.8,26.7z"/>
	<path class="st2" d="M164.2,27c-0.1,0.8-0.4,1.3-0.8,1.7c-0.5,0.4-1.1,0.6-1.9,0.6c-0.8,0-1.5-0.3-2-0.9c-0.5-0.6-0.8-1.4-0.8-2.4
		v-0.7c0-0.7,0.1-1.2,0.4-1.7c0.2-0.5,0.6-0.9,1-1.2c0.4-0.3,0.9-0.4,1.5-0.4c0.8,0,1.4,0.2,1.8,0.6c0.5,0.4,0.7,1,0.8,1.8h-0.9
		c-0.1-0.6-0.3-1-0.5-1.2c-0.3-0.3-0.7-0.4-1.1-0.4c-0.6,0-1.1,0.2-1.4,0.7c-0.3,0.4-0.5,1.1-0.5,1.9v0.7c0,0.8,0.2,1.4,0.5,1.8
		s0.8,0.7,1.4,0.7c0.5,0,0.9-0.1,1.2-0.4c0.3-0.2,0.5-0.6,0.6-1.2H164.2z"/>
	<path class="st2" d="M170.8,27c-0.1,0.8-0.4,1.3-0.8,1.7c-0.5,0.4-1.1,0.6-1.9,0.6c-0.8,0-1.5-0.3-2-0.9c-0.5-0.6-0.8-1.4-0.8-2.4
		v-0.7c0-0.7,0.1-1.2,0.4-1.7c0.2-0.5,0.6-0.9,1-1.2c0.4-0.3,0.9-0.4,1.5-0.4c0.8,0,1.4,0.2,1.8,0.6c0.5,0.4,0.7,1,0.8,1.8h-0.9
		c-0.1-0.6-0.3-1-0.5-1.2c-0.3-0.3-0.7-0.4-1.1-0.4c-0.6,0-1.1,0.2-1.4,0.7c-0.3,0.4-0.5,1.1-0.5,1.9v0.7c0,0.8,0.2,1.4,0.5,1.8
		s0.8,0.7,1.4,0.7c0.5,0,0.9-0.1,1.2-0.4c0.3-0.2,0.5-0.6,0.6-1.2H170.8z"/>
	<path class="st2" d="M177.5,26c0,0.7-0.1,1.3-0.4,1.8c-0.2,0.5-0.6,0.9-1,1.2s-0.9,0.4-1.5,0.4c-0.6,0-1.1-0.1-1.5-0.4
		c-0.4-0.3-0.8-0.7-1-1.2c-0.2-0.5-0.4-1.1-0.4-1.8v-0.5c0-0.7,0.1-1.3,0.4-1.8c0.2-0.5,0.6-0.9,1-1.2c0.4-0.3,0.9-0.4,1.5-0.4
		c0.6,0,1.1,0.1,1.5,0.4c0.4,0.3,0.8,0.7,1,1.2c0.2,0.5,0.4,1.1,0.4,1.8V26z M176.6,25.5c0-0.8-0.2-1.5-0.5-1.9
		c-0.3-0.5-0.8-0.7-1.4-0.7c-0.6,0-1.1,0.2-1.4,0.7c-0.3,0.5-0.5,1.1-0.5,1.9V26c0,0.8,0.2,1.5,0.5,1.9c0.3,0.5,0.8,0.7,1.4,0.7
		c0.6,0,1.1-0.2,1.4-0.7c0.3-0.4,0.5-1.1,0.5-1.9V25.5z"/>
	<path class="st2" d="M180.1,22.2l2.3,5.8l2.3-5.8h1.2v7.1H185v-2.8l0.1-3l-2.3,5.8h-0.7l-2.3-5.7l0.1,3v2.8h-0.9v-7.1H180.1z"/>
	<path class="st2" d="M188.6,26.5v2.8h-0.9v-7.1h2.6c0.8,0,1.4,0.2,1.8,0.6c0.4,0.4,0.7,0.9,0.7,1.6c0,0.7-0.2,1.2-0.6,1.6
		c-0.4,0.4-1,0.6-1.9,0.6H188.6z M188.6,25.7h1.7c0.5,0,0.9-0.1,1.2-0.4c0.3-0.2,0.4-0.6,0.4-1c0-0.4-0.1-0.8-0.4-1
		c-0.3-0.3-0.6-0.4-1.1-0.4h-1.7V25.7z"/>
	<path class="st2" d="M197.2,27.4h-3l-0.7,1.9h-1l2.7-7.1h0.8l2.7,7.1h-1L197.2,27.4z M194.5,26.7h2.4l-1.2-3.3L194.5,26.7z"/>
	<path class="st2" d="M205.3,29.3h-0.9l-3.6-5.5v5.5h-0.9v-7.1h0.9l3.6,5.5v-5.5h0.9V29.3z"/>
	<path class="st2" d="M209,25.8l1.9-3.6h1.1l-2.5,4.5v2.7h-0.9v-2.7l-2.5-4.5h1.1L209,25.8z"/>
	<path class="st2" d="M213.8,29.3h-0.9v-7.1h0.9V29.3z"/>
	<path class="st2" d="M221,29.3H220l-3.6-5.5v5.5h-0.9v-7.1h0.9l3.6,5.5v-5.5h0.9V29.3z"/>
	<path class="st2" d="M227.9,28.4c-0.2,0.3-0.6,0.6-1,0.8c-0.4,0.2-0.9,0.3-1.5,0.3c-0.6,0-1.1-0.1-1.5-0.4c-0.4-0.3-0.8-0.7-1-1.2
		c-0.2-0.5-0.4-1.1-0.4-1.7v-0.6c0-1.1,0.2-1.9,0.8-2.5c0.5-0.6,1.2-0.9,2.1-0.9c0.7,0,1.3,0.2,1.8,0.6c0.5,0.4,0.7,0.9,0.8,1.6H227
		c-0.2-0.9-0.7-1.4-1.7-1.4c-0.6,0-1.1,0.2-1.4,0.7c-0.3,0.4-0.5,1.1-0.5,1.9V26c0,0.8,0.2,1.4,0.5,1.9c0.4,0.5,0.9,0.7,1.5,0.7
		c0.4,0,0.7,0,0.9-0.1s0.5-0.2,0.7-0.4v-1.6h-1.6v-0.8h2.6V28.4z"/>
</g>
<g class="st3">
	<path class="st2" d="M74.4,37.5v2.8h-0.9v-7.1h2.6c0.8,0,1.4,0.2,1.8,0.6s0.7,0.9,0.7,1.6c0,0.7-0.2,1.2-0.6,1.6
		c-0.4,0.4-1,0.6-1.9,0.6H74.4z M74.4,36.7h1.7c0.5,0,0.9-0.1,1.2-0.4s0.4-0.6,0.4-1c0-0.4-0.1-0.8-0.4-1C77,34.1,76.6,34,76.2,34
		h-1.7V36.7z"/>
	<path class="st2" d="M83,38.4h-3l-0.7,1.9h-1l2.7-7.1H82l2.7,7.1h-1L83,38.4z M80.3,37.7h2.4l-1.2-3.3L80.3,37.7z"/>
	<path class="st2" d="M89.7,37h-3.1v2.5h3.6v0.8h-4.5v-7.1h4.5V34h-3.5v2.3h3.1V37z"/>
	<path class="st2" d="M93.9,37.4h-1.7v2.9h-0.9v-7.1h2.4c0.8,0,1.4,0.2,1.8,0.5s0.6,0.9,0.6,1.6c0,0.4-0.1,0.8-0.4,1.2
		s-0.6,0.6-1,0.7l1.7,3v0.1h-1L93.9,37.4z M92.3,36.7h1.4c0.5,0,0.8-0.1,1.1-0.4s0.4-0.6,0.4-1c0-0.4-0.1-0.8-0.4-1
		c-0.3-0.2-0.6-0.4-1.1-0.4h-1.4V36.7z"/>
	<path class="st2" d="M102.9,40.3H102l-3.6-5.5v5.5h-0.9v-7.1h0.9l3.6,5.5v-5.5h0.9V40.3z"/>
	<path class="st2" d="M108.6,37h-3.1v2.5h3.6v0.8h-4.5v-7.1h4.5V34h-3.5v2.3h3.1V37z"/>
	<path class="st2" d="M115.3,34H113v6.3h-0.9V34h-2.3v-0.8h5.5V34z"/>
	<path class="st2" d="M124.1,37c0,0.7-0.1,1.3-0.4,1.8c-0.2,0.5-0.6,0.9-1,1.2s-0.9,0.4-1.5,0.4c-0.6,0-1.1-0.1-1.5-0.4
		c-0.4-0.3-0.8-0.7-1-1.2c-0.2-0.5-0.4-1.1-0.4-1.8v-0.5c0-0.7,0.1-1.3,0.4-1.8c0.2-0.5,0.6-0.9,1-1.2c0.4-0.3,0.9-0.4,1.5-0.4
		c0.6,0,1.1,0.1,1.5,0.4c0.4,0.3,0.8,0.7,1,1.2c0.2,0.5,0.4,1.1,0.4,1.8V37z M123.2,36.5c0-0.8-0.2-1.5-0.5-1.9
		c-0.3-0.5-0.8-0.7-1.4-0.7c-0.6,0-1.1,0.2-1.4,0.7c-0.3,0.5-0.5,1.1-0.5,1.9V37c0,0.8,0.2,1.5,0.5,1.9c0.3,0.5,0.8,0.7,1.4,0.7
		c0.6,0,1.1-0.2,1.4-0.7c0.3-0.4,0.5-1.1,0.5-1.9V36.5z"/>
	<path class="st2" d="M128.1,37.4h-1.7v2.9h-0.9v-7.1h2.4c0.8,0,1.4,0.2,1.8,0.5c0.4,0.4,0.6,0.9,0.6,1.6c0,0.4-0.1,0.8-0.4,1.2
		s-0.6,0.6-1,0.7l1.7,3v0.1h-1L128.1,37.4z M126.4,36.7h1.4c0.5,0,0.8-0.1,1.1-0.4c0.3-0.2,0.4-0.6,0.4-1c0-0.4-0.1-0.8-0.4-1
		c-0.3-0.2-0.6-0.4-1.1-0.4h-1.4V36.7z"/>
	<path class="st2" d="M138.1,38.4h-3l-0.7,1.9h-1l2.7-7.1h0.8l2.7,7.1h-1L138.1,38.4z M135.4,37.7h2.4l-1.2-3.3L135.4,37.7z"/>
	<path class="st2" d="M140.7,40.3v-7.1h2c0.6,0,1.2,0.1,1.6,0.4c0.5,0.3,0.8,0.7,1.1,1.2s0.4,1.1,0.4,1.7V37c0,0.7-0.1,1.3-0.4,1.8
		s-0.6,0.9-1.1,1.2c-0.5,0.3-1,0.4-1.7,0.4H140.7z M141.6,34v5.6h1c0.7,0,1.3-0.2,1.7-0.7c0.4-0.4,0.6-1.1,0.6-1.9v-0.4
		c0-0.8-0.2-1.4-0.6-1.9c-0.4-0.4-0.9-0.7-1.6-0.7H141.6z"/>
	<path class="st2" d="M152.2,33.2V38c0,0.7-0.2,1.2-0.6,1.6c-0.4,0.4-1,0.7-1.7,0.7l-0.2,0c-0.8,0-1.4-0.2-1.9-0.6
		c-0.5-0.4-0.7-1-0.7-1.7v-4.8h0.9V38c0,0.5,0.1,0.9,0.4,1.2c0.3,0.3,0.7,0.4,1.2,0.4c0.5,0,0.9-0.1,1.2-0.4
		c0.3-0.3,0.4-0.7,0.4-1.2v-4.8H152.2z"/>
	<path class="st2" d="M154.7,39.5h3.4v0.8h-4.3v-7.1h0.9V39.5z"/>
	<path class="st2" d="M162.7,34h-2.3v6.3h-0.9V34h-2.3v-0.8h5.5V34z"/>
	<path class="st2" d="M171.2,39.4c-0.2,0.3-0.6,0.6-1,0.8c-0.4,0.2-0.9,0.3-1.5,0.3c-0.6,0-1.1-0.1-1.5-0.4c-0.4-0.3-0.8-0.7-1-1.2
		c-0.2-0.5-0.4-1.1-0.4-1.7v-0.6c0-1.1,0.2-1.9,0.8-2.5c0.5-0.6,1.2-0.9,2.1-0.9c0.7,0,1.3,0.2,1.8,0.6c0.5,0.4,0.7,0.9,0.8,1.6
		h-0.9c-0.2-0.9-0.7-1.4-1.7-1.4c-0.6,0-1.1,0.2-1.4,0.7c-0.3,0.4-0.5,1.1-0.5,1.9V37c0,0.8,0.2,1.4,0.5,1.9
		c0.4,0.5,0.9,0.7,1.5,0.7c0.4,0,0.7,0,0.9-0.1s0.5-0.2,0.7-0.4v-1.6h-1.6v-0.8h2.6V39.4z"/>
	<path class="st2" d="M177.8,33.2V38c0,0.7-0.2,1.2-0.6,1.6c-0.4,0.4-1,0.7-1.7,0.7l-0.2,0c-0.8,0-1.4-0.2-1.9-0.6
		c-0.5-0.4-0.7-1-0.7-1.7v-4.8h0.9V38c0,0.5,0.1,0.9,0.4,1.2c0.3,0.3,0.7,0.4,1.2,0.4c0.5,0,0.9-0.1,1.2-0.4
		c0.3-0.3,0.4-0.7,0.4-1.2v-4.8H177.8z"/>
	<path class="st2" d="M183.1,38.4h-3l-0.7,1.9h-1l2.7-7.1h0.8l2.7,7.1h-1L183.1,38.4z M180.4,37.7h2.4l-1.2-3.3L180.4,37.7z"/>
	<path class="st2" d="M188.3,37.4h-1.7v2.9h-0.9v-7.1h2.4c0.8,0,1.4,0.2,1.8,0.5c0.4,0.4,0.6,0.9,0.6,1.6c0,0.4-0.1,0.8-0.4,1.2
		s-0.6,0.6-1,0.7l1.7,3v0.1h-1L188.3,37.4z M186.6,36.7h1.4c0.5,0,0.8-0.1,1.1-0.4c0.3-0.2,0.4-0.6,0.4-1c0-0.4-0.1-0.8-0.4-1
		c-0.3-0.2-0.6-0.4-1.1-0.4h-1.4V36.7z"/>
	<path class="st2" d="M192.9,40.3h-0.9v-7.1h0.9V40.3z"/>
	<path class="st2" d="M198.6,38.4h-3l-0.7,1.9h-1l2.7-7.1h0.8l2.7,7.1h-1L198.6,38.4z M195.9,37.7h2.4l-1.2-3.3L195.9,37.7z"/>
	<path class="st2" d="M206.7,40.3h-0.9l-3.6-5.5v5.5h-0.9v-7.1h0.9l3.6,5.5v-5.5h0.9V40.3z"/>
</g>
<g>
	<path class="st2" d="M215.4,2.6c-8,0-14.3,2.7-14.3,6.1s6.3,6.1,14.3,6.1s14.3-2.7,14.3-6.1S223.4,2.6,215.4,2.6z M229.1,8.4h-3.4
		c-0.1-2-2-3.8-4.7-4.8C225.6,4.4,228.9,6.3,229.1,8.4z M209.2,8.4h-3.9c0.2-2.4,3.1-4.4,7-5.1C210.5,4.3,209.4,6.2,209.2,8.4z
		 M209.2,8.9c0.1,2.2,1.3,4.1,3.2,5.1c-3.9-0.7-6.8-2.7-7-5.1H209.2z M209.8,8.6c0-3.1,2.5-5.6,5.6-5.6s5.6,2.5,5.6,5.6
		s-2.5,5.6-5.6,5.6C212.2,14.2,209.8,11.7,209.8,8.6z M221.4,8.9h3.9c-0.2,2.4-3.1,4.4-7,5.1C220,13,221.2,11.1,221.4,8.9z
		 M221.4,8.4c-0.1-2.2-1.4-4.1-3.2-5.1c3.9,0.7,6.8,2.7,7,5.1H221.4z M209.5,3.6c-2.7,1-4.5,2.8-4.7,4.8h-3.4
		C201.8,6.3,205,4.4,209.5,3.6z M201.5,8.9h3.4c0.1,2,2,3.8,4.7,4.8C205,12.9,201.8,11,201.5,8.9z M221,13.7c2.7-1,4.5-2.8,4.7-4.8
		h3.4C228.9,11,225.6,12.9,221,13.7z"/>
	<circle class="st2" cx="215.4" cy="8.6" r="0.8"/>
	<path class="st2" d="M213.5,11.7c-0.6,0-1.1-0.5-1.1-1.1s0.5-1.1,1.1-1.1s1.1,0.5,1.1,1.1C214.5,11.1,214,11.7,213.5,11.7z"/>
	<path class="st2" d="M217.1,11.7c-0.6,0-1.1-0.5-1.1-1.1s0.5-1.1,1.1-1.1s1.1,0.5,1.1,1.1C218.4,11.1,217.8,11.7,217.1,11.7z"/>
	<path class="st2" d="M213.5,7.9c-0.6,0-1.1-0.5-1.1-1.1s0.5-1.1,1.1-1.1s1.1,0.5,1.1,1.1C214.5,7.4,214,7.9,213.5,7.9z"/>
	<path class="st2" d="M217.1,7.9c-0.6,0-1.1-0.5-1.1-1.1s0.5-1.1,1.1-1.1s1.1,0.5,1.1,1.1C218.4,7.4,217.8,7.9,217.1,7.9z"/>
	<g>
		<path class="st2" d="M215.4,6.8c0-0.5,0.2-1,0.5-1.3c0.4-0.4,0.8-0.5,1.3-0.5c0.2,0,0.4,0,0.6,0.1c-0.7-0.5-1.5-0.8-2.5-0.8
			c-0.9,0-1.8,0.3-2.5,0.8C213,5,213.1,5,213.4,5C214.5,4.9,215.4,5.8,215.4,6.8"/>
		<path class="st2" d="M212.1,9.2c0.3-0.3,0.7-0.5,1.1-0.5c-0.9-0.1-1.6-0.9-1.6-1.9c0-0.2,0-0.4,0.1-0.6c-0.5,0.7-0.7,1.5-0.7,2.4
			c0,0.9,0.3,1.7,0.7,2.4c0-0.2-0.1-0.3-0.1-0.5C211.5,10,211.8,9.5,212.1,9.2z"/>
		<path class="st2" d="M217.4,8.7c0.9,0.1,1.6,0.9,1.6,1.9c0,0.2,0,0.4-0.1,0.5c0.4-0.7,0.7-1.5,0.7-2.4s-0.3-1.7-0.7-2.4
			c0.1,0.2,0.1,0.4,0.1,0.6C219,7.8,218.4,8.6,217.4,8.7z"/>
		<path class="st2" d="M215.4,10.5c0,1-0.8,1.9-1.9,1.9c-0.2,0-0.4,0-0.5-0.1c0.7,0.4,1.5,0.7,2.4,0.7s1.7-0.3,2.4-0.7
			c-0.2,0-0.3,0.1-0.5,0.1C216.1,12.4,215.4,11.5,215.4,10.5z"/>
		<path class="st2" d="M213.2,8.7c0.1,0,0.1,0,0.2,0c0.1,0,0.1,0,0.2,0c-0.1,0-0.1,0-0.2,0C213.4,8.6,213.2,8.7,213.2,8.7z"/>
		<path class="st2" d="M217,8.7c0.1,0,0.1,0,0.2,0c0.1,0,0.1,0,0.2,0c-0.1,0-0.1,0-0.2,0C217,8.6,217,8.7,217,8.7z"/>
	</g>
	<line class="st4" x1="219" y1="10.1" x2="219" y2="10.1"/>
</g>
<g>
	<g class="st3">
		<path class="st2" d="M106.1,12.6V5.5h3.7c0.7,0,1.2,0.1,1.6,0.2s0.7,0.3,0.9,0.7c0.2,0.3,0.3,0.7,0.3,1.2c0,0.4-0.1,0.7-0.3,1
			c-0.2,0.3-0.4,0.5-0.7,0.7c-0.2,0.1-0.4,0.2-0.8,0.3c0.3,0.1,0.5,0.2,0.6,0.3c0.1,0.1,0.2,0.2,0.4,0.4c0.2,0.2,0.3,0.3,0.3,0.4
			l1.1,2.1h-2.5l-1.2-2.2c-0.1-0.3-0.3-0.5-0.4-0.6c-0.2-0.1-0.3-0.2-0.5-0.2h-0.2v2.9H106.1z M108.4,8.4h0.9c0.1,0,0.3,0,0.6-0.1
			c0.1,0,0.3-0.1,0.4-0.2s0.1-0.3,0.1-0.4c0-0.2-0.1-0.4-0.2-0.5s-0.4-0.2-0.8-0.2h-1V8.4z"/>
		<path class="st2" d="M113.9,5.5h5.9V7h-3.7v1.1h3.4v1.5h-3.4V11h3.8v1.6h-6V5.5z"/>
		<path class="st2" d="M120.7,10.3l2.1-0.1c0,0.3,0.1,0.6,0.3,0.8c0.2,0.3,0.6,0.4,1,0.4c0.3,0,0.6-0.1,0.7-0.2
			c0.2-0.1,0.3-0.3,0.3-0.5c0-0.2-0.1-0.4-0.2-0.5c-0.2-0.1-0.5-0.3-1.1-0.4c-1-0.2-1.7-0.5-2.1-0.9C121.2,8.5,121,8,121,7.5
			c0-0.4,0.1-0.7,0.3-1c0.2-0.3,0.5-0.6,1-0.8c0.4-0.2,1-0.3,1.8-0.3c0.9,0,1.6,0.2,2.1,0.5c0.5,0.3,0.8,0.9,0.9,1.6l-2.1,0.1
			c-0.1-0.3-0.2-0.6-0.3-0.7c-0.2-0.1-0.4-0.2-0.7-0.2c-0.3,0-0.5,0.1-0.6,0.2C123.1,7,123,7.1,123,7.3c0,0.1,0.1,0.2,0.2,0.3
			c0.1,0.1,0.4,0.2,0.7,0.3c1,0.2,1.7,0.4,2.1,0.6c0.4,0.2,0.7,0.5,0.9,0.8s0.3,0.7,0.3,1.1c0,0.5-0.1,0.9-0.4,1.3s-0.6,0.7-1.1,0.9
			c-0.5,0.2-1,0.3-1.7,0.3c-1.2,0-2.1-0.2-2.5-0.7S120.8,11,120.7,10.3z"/>
		<path class="st2" d="M127.8,5.5h6.7v1.8h-2.3v5.4h-2.2V7.2h-2.3V5.5z"/>
		<path class="st2" d="M135.6,12.6V5.5h3.7c0.7,0,1.2,0.1,1.6,0.2s0.7,0.3,0.9,0.7c0.2,0.3,0.3,0.7,0.3,1.2c0,0.4-0.1,0.7-0.3,1
			c-0.2,0.3-0.4,0.5-0.7,0.7c-0.2,0.1-0.4,0.2-0.8,0.3c0.3,0.1,0.5,0.2,0.6,0.3c0.1,0.1,0.2,0.2,0.4,0.4c0.2,0.2,0.3,0.3,0.3,0.4
			l1.1,2.1h-2.5l-1.2-2.2c-0.2-0.3-0.3-0.5-0.4-0.6c-0.2-0.1-0.3-0.2-0.5-0.2h-0.2v2.9H135.6z M137.8,8.4h0.9c0.1,0,0.3,0,0.6-0.1
			c0.1,0,0.3-0.1,0.4-0.2s0.1-0.3,0.1-0.4c0-0.2-0.1-0.4-0.2-0.5s-0.4-0.2-0.8-0.2h-1V8.4z"/>
		<path class="st2" d="M143.4,5.5h2.2v7.2h-2.2V5.5z"/>
		<path class="st2" d="M152,9.7l1.9,0.6c-0.1,0.5-0.3,1-0.6,1.4c-0.3,0.4-0.6,0.6-1,0.8s-0.9,0.3-1.6,0.3c-0.8,0-1.4-0.1-1.9-0.3
			c-0.5-0.2-0.9-0.6-1.3-1.2c-0.4-0.6-0.5-1.3-0.5-2.2c0-1.2,0.3-2.1,0.9-2.7s1.5-1,2.7-1c0.9,0,1.6,0.2,2.1,0.5
			c0.5,0.4,0.9,0.9,1.2,1.7l-2,0.4c-0.1-0.2-0.1-0.4-0.2-0.5c-0.1-0.2-0.3-0.3-0.5-0.4c-0.2-0.1-0.4-0.1-0.6-0.1
			c-0.5,0-0.9,0.2-1.2,0.6c-0.2,0.3-0.3,0.8-0.3,1.4c0,0.8,0.1,1.3,0.4,1.6c0.2,0.3,0.6,0.4,1,0.4c0.4,0,0.7-0.1,1-0.4
			C151.7,10.5,151.9,10.2,152,9.7z"/>
		<path class="st2" d="M154.5,5.5h6.7v1.8H159v5.4h-2.2V7.2h-2.3V5.5z"/>
		<path class="st2" d="M162.2,5.5h5.9V7h-3.7v1.1h3.4v1.5h-3.4V11h3.8v1.6h-6V5.5z"/>
		<path class="st2" d="M169.5,5.5h3.3c0.6,0,1.2,0.1,1.6,0.3c0.4,0.2,0.7,0.4,1,0.8c0.3,0.3,0.4,0.7,0.6,1.1s0.2,0.9,0.2,1.4
			c0,0.8-0.1,1.4-0.3,1.8c-0.2,0.4-0.4,0.8-0.7,1.1c-0.3,0.3-0.6,0.5-1,0.6c-0.5,0.1-0.9,0.2-1.3,0.2h-3.3V5.5z M171.7,7.1V11h0.5
			c0.5,0,0.8-0.1,1-0.2c0.2-0.1,0.3-0.3,0.5-0.5c0.1-0.3,0.2-0.7,0.2-1.2c0-0.8-0.1-1.3-0.4-1.6c-0.2-0.3-0.7-0.4-1.2-0.4H171.7z"/>
	</g>
	<line class="st5" x1="47.4" y1="16.9" x2="234.8" y2="16.9"/>
</g>
</svg>
